<svg width="19" height="19" fill="none" xmlns="http://www.w3.org/2000/svg"><path d="M7.589 17.019v1.924l-.465-.376a31.193 31.193 0 0 1-3.518-3.439C1.213 12.381 0 9.915 0 7.798v-.21C0 3.405 3.404 0 7.589 0c4.184 0 7.589 3.404 7.589 7.589v.21c0 .177-.01.358-.027.54l-1.484-1.353A6.117 6.117 0 0 0 7.59 1.48 6.115 6.115 0 0 0 1.48 7.589v.21c0 3.576 4.607 7.905 6.108 9.22Zm4.553-1.064h2.221v-2.221h-2.22v2.221ZM7.59 4.442a3.15 3.15 0 0 1 3.146 3.147 3.15 3.15 0 0 1-3.146 3.146A3.15 3.15 0 0 1 4.442 7.59 3.15 3.15 0 0 1 7.59 4.442Zm0 1.481c-.919 0-1.666.747-1.666 1.666 0 .918.747 1.666 1.666 1.666.918 0 1.666-.748 1.666-1.666 0-.919-.748-1.666-1.666-1.666Zm10.413 9.026-.416-.38v2.377a2.01 2.01 0 0 1-2.008 2.008H10.89a2.01 2.01 0 0 1-2.007-2.008V14.57l-.417.38-.998-1.094 5.766-5.26L19 13.855l-.998 1.094Zm-1.897-1.73-2.87-2.62-2.872 2.62v3.727c0 .29.237.527.527.527h4.688c.29 0 .527-.236.527-.527v-3.728Z" fill="#fff"/></svg>