<svg width="163" height="60" fill="none" xmlns="http://www.w3.org/2000/svg"><g filter="url(#a)"><path fill-rule="evenodd" clip-rule="evenodd" d="M.363.727c22.972 29.387 87.039 61.012 135.194 42.707-1.761 3.687-2.674 6.406-3.643 7.616-.849 1.209 22.198-16.782 31.031-24.05 0 0-40.678-.729-41.342-.546-.725.244 4.821 2.521 9.885 4.68C93.183 45.004 39.935 29.282.363.727Z" fill="#fff"/><path fill-rule="evenodd" clip-rule="evenodd" d="M.363.727c22.972 29.387 87.039 61.012 135.194 42.707-1.761 3.687-2.674 6.406-3.643 7.616-.849 1.209 22.198-16.782 31.031-24.05 0 0-40.678-.729-41.342-.546-.725.244 4.821 2.521 9.885 4.68C93.183 45.004 39.935 29.282.363.727Z" fill="#000" fill-opacity=".2"/><path fill-rule="evenodd" clip-rule="evenodd" d="M.363.727c22.972 29.387 87.039 61.012 135.194 42.707-1.761 3.687-2.674 6.406-3.643 7.616-.849 1.209 22.198-16.782 31.031-24.05 0 0-40.678-.729-41.342-.546-.725.244 4.821 2.521 9.885 4.68C93.183 45.004 39.935 29.282.363.727Z" fill="#000" fill-opacity=".2"/><path d="M3.133 3.298C15.03 16.992 35.476 30.837 58.691 39.497c24.843 9.267 52.765 12.563 76.688 3.47l1.167-.444-.538 1.127c-.657 1.375-1.193 2.611-1.663 3.693-.156.36-.305.704-.449 1.03-.181.41-.355.797-.526 1.155.43-.313.931-.684 1.493-1.104a634.681 634.681 0 0 0 8.629-6.615c6.251-4.86 13.534-10.623 18.083-14.333l-.388-.007a9388.64 9388.64 0 0 0-18.672-.31c-5.126-.08-10.272-.154-14.177-.197a587.284 587.284 0 0 0-5.244-.037c.413.203.915.437 1.486.695 1.461.659 3.337 1.454 5.267 2.273l1.837.78 1.168.498-1.194.433c-19.275 6.98-42.27 6.502-65.379.721-21.933-5.487-44-15.761-63.146-29.027Z" stroke="#000"/></g><defs><filter id="a" x="-3.637" y=".727" width="170.581" height="58.381" filterUnits="userSpaceOnUse" color-interpolation-filters="sRGB"><feFlood flood-opacity="0" result="BackgroundImageFix"/><feColorMatrix in="SourceAlpha" values="0 0 0 0 0 0 0 0 0 0 0 0 0 0 0 0 0 0 127 0" result="hardAlpha"/><feOffset dy="4"/><feGaussianBlur stdDeviation="2"/><feComposite in2="hardAlpha" operator="out"/><feColorMatrix values="0 0 0 0 0 0 0 0 0 0 0 0 0 0 0 0 0 0 0.25 0"/><feBlend in2="BackgroundImageFix" result="effect1_dropShadow_0:123"/><feBlend in="SourceGraphic" in2="effect1_dropShadow_0:123" result="shape"/></filter></defs></svg>