<svg width="37" height="37" fill="none" xmlns="http://www.w3.org/2000/svg"><path d="m23.17 23.096-.564-2.829a2.612 2.612 0 0 0-.95-1.595 1.952 1.952 0 0 0-.92-.481l-2.374-.692c-.06-.03-.09-.03-.149-.06a.6.6 0 0 1-.237-.362l-.119-.963c.683-.511 1.158-1.324 1.395-2.227.416-.03.742-.511.742-1.113 0-.572-.267-1.023-.653-1.114M12.633 11.6c-.356.12-.623.542-.623 1.113 0 .602.326 1.084.742 1.114.237.903.742 1.715 1.395 2.227l-.119.963c-.03.15-.089.301-.237.361-.06.03-.09.06-.149.06l-2.374.693c-.297.06-.623.24-.92.481-.475.422-.831.963-.95 1.595l-.564 2.83M19.37 11.6s.209-4.002-3.353-4.002c-3.562 0-3.384 4.002-3.384 4.002" stroke="#344154" stroke-miterlimit="10" stroke-linecap="round"/><path d="M12.9 9.885c.149-.301.416-.512.713-.632.475-.18 1.009-.03 1.484.18.682.301 1.246.693 2.018.753.712.09 1.365 0 2.018-.331M13.82 17.408l2.197 2.288M18.213 17.408l-2.196 2.288M16.017 19.696v1.534" stroke="#344154" stroke-miterlimit="10" stroke-linecap="round"/><path d="M19.035 29.442c7.187-1.686 11.665-8.96 10.003-16.248C27.375 5.907 20.2 1.367 13.014 3.052 5.826 4.738 1.348 12.012 3.01 19.3c1.662 7.288 8.837 11.829 16.024 10.143Z" stroke="#344154" stroke-miterlimit="10" stroke-linecap="round"/><path d="M16.373 32.095c8.43 0 15.286-6.952 15.286-15.5" stroke="#344154" stroke-miterlimit="10" stroke-linecap="round"/><path d="m28.364 26.196 7.124 7.223a1.816 1.816 0 0 1 0 2.528 1.756 1.756 0 0 1-2.493 0l-7.124-7.223" stroke="#344154" stroke-miterlimit="10" stroke-linecap="round"/></svg>