<svg width="38" height="31" fill="none" xmlns="http://www.w3.org/2000/svg"><path d="M12.07 16.635c0-.367.53-6.107.53-6.107l3.82-2.516" stroke="#344154" stroke-miterlimit="10" stroke-linejoin="round"/><path d="m18.484 13.582-.92 3.053" stroke="#344154" stroke-miterlimit="10" stroke-linecap="round" stroke-linejoin="round"/><path d="M25.957 16.635c0-.367-.53-6.107-.53-6.107l-3.82-2.516" stroke="#344154" stroke-miterlimit="10" stroke-linejoin="round"/><path d="m21.635 8.012-4.1 3.817.949 1.753h1.06l.948-1.753-4.1-3.817M19.544 13.582l.92 3.053M21.635 14.373h2.035M19.014 7.107c1.355 0 2.454-1.367 2.454-3.053C21.468 2.367 20.369 1 19.014 1c-1.355 0-2.454 1.367-2.454 3.054 0 1.686 1.099 3.053 2.454 3.053Z" stroke="#344154" stroke-miterlimit="10" stroke-linecap="round" stroke-linejoin="round"/><path d="m25.372 10.613 2.565-1.103" stroke="#344154" stroke-miterlimit="10" stroke-linejoin="round"/><path d="M29.694 10.754 27.937 9.51" stroke="#344154" stroke-miterlimit="10" stroke-linecap="round" stroke-linejoin="round"/><path d="M34.602 16.663c0-.254-.614-6.05-.614-6.05L31.423 9.51" stroke="#344154" stroke-miterlimit="10" stroke-linejoin="round"/><path d="m31.45 9.51-1.756 1.245v3.618M29.694 8.238c1.032 0 1.868-1.038 1.868-2.318S30.726 3.6 29.694 3.6 27.825 4.64 27.825 5.92c0 1.28.837 2.318 1.869 2.318Z" stroke="#344154" stroke-miterlimit="10" stroke-linecap="round" stroke-linejoin="round"/><path d="M12.656 10.613 10.09 9.51" stroke="#344154" stroke-miterlimit="10" stroke-linejoin="round"/><path d="M8.334 10.754 10.09 9.51" stroke="#344154" stroke-miterlimit="10" stroke-linecap="round" stroke-linejoin="round"/><path d="M3.426 16.663c0-.254.613-6.05.613-6.05L6.605 9.51" stroke="#344154" stroke-miterlimit="10" stroke-linejoin="round"/><path d="m6.577 9.51 1.757 1.244v3.62M8.334 8.238c1.032 0 1.868-1.038 1.868-2.318S9.366 3.6 8.334 3.6 6.465 4.64 6.465 5.92c0 1.28.837 2.318 1.869 2.318Z" stroke="#344154" stroke-miterlimit="10" stroke-linecap="round" stroke-linejoin="round"/><path d="M33.988 16.635H4.039C2.366 16.635 1 18.021 1 19.717v9.896h6.218V28.17c0-1.923 1.534-3.478 3.43-3.478h16.703c1.896 0 3.43 1.555 3.43 3.478v1.442H37v-9.896c.028-1.696-1.339-3.082-3.012-3.082Z" stroke="#344154" stroke-miterlimit="10"/><path d="M10.48 22.205h17.067" stroke="#344154" stroke-miterlimit="10" stroke-linecap="round"/></svg>