<svg width="36" height="36" fill="none" xmlns="http://www.w3.org/2000/svg"><path d="M13.5 5.063h15.75v1.125H13.5V5.063ZM13.5 7.313h15.75v1.125H13.5V7.312ZM13.5 9.563h15.75v1.124H13.5V9.563ZM13.5 11.813h15.75v1.124H13.5v-1.124Z" fill="#3A4661"/><path d="M33.188 18.563H31.5V3.374a.563.563 0 0 0-.563-.563H29.25V1.125a.563.563 0 0 0-.563-.563H5.063a.563.563 0 0 0-.562.563v17.438H2.812c-1.24 0-2.25 1.009-2.25 2.25v14.625h1.125V20.812c0-.62.505-1.125 1.125-1.125h30.375c.62 0 1.126.505 1.126 1.125v14.625h1.124V20.813c0-1.241-1.009-2.25-2.25-2.25Zm-2.813 0h-22.5V8.438h3.938c.31 0 .562-.253.562-.563V3.937h18v14.626ZM8.67 7.313l2.58-2.58v2.58H8.67ZM5.625 1.688h22.5v1.125H11.812a.56.56 0 0 0-.397.164l-4.5 4.5a.561.561 0 0 0-.165.398v10.688H5.625V1.688Z" fill="#3A4661"/><path d="M28.125 16.313h1.125v1.125h-1.125v-1.125ZM25.875 16.313H27v1.125h-1.125v-1.125ZM23.625 16.313h1.125v1.125h-1.125v-1.125ZM21.375 16.313H22.5v1.125h-1.125v-1.125ZM21.375 14.063h7.875v1.124h-7.875v-1.124ZM2.813 21.938h15.75v1.125H2.813v-1.125ZM2.813 24.188h7.874v1.125H2.814v-1.125ZM25.313 20.813c-4.032 0-7.313 3.28-7.313 7.312s3.28 7.313 7.313 7.313c4.032 0 7.312-3.281 7.312-7.313s-3.28-7.313-7.313-7.313Zm0 13.5a6.195 6.195 0 0 1-6.188-6.188 6.195 6.195 0 0 1 6.188-6.188 6.195 6.195 0 0 1 6.187 6.188 6.195 6.195 0 0 1-6.188 6.188Z" fill="#3A4661"/><path d="M28.688 27.563h-.563v-1.688a2.816 2.816 0 0 0-2.813-2.813 2.816 2.816 0 0 0-2.812 2.813v1.688h-.563a.563.563 0 0 0-.562.562V31.5c0 .31.252.563.563.563h6.75c.31 0 .562-.253.562-.563v-3.375a.563.563 0 0 0-.563-.563Zm-5.063-1.688c0-.93.757-1.688 1.688-1.688.93 0 1.687.758 1.687 1.688v1.688h-3.375v-1.688Zm4.5 5.063H22.5v-2.25h5.625v2.25Z" fill="#3A4661"/></svg>