<svg width="19" height="19" fill="none" xmlns="http://www.w3.org/2000/svg"><path d="M9.5 2.227a3.9 3.9 0 0 0-3.896 3.896c0 1.334.672 2.561 1.799 3.283 1.15.737 2.563.815 3.875.212a.557.557 0 1 0-.465-1.012c-.96.442-1.984.392-2.81-.137a2.776 2.776 0 0 1-1.286-2.346A2.786 2.786 0 0 1 9.5 3.34a2.786 2.786 0 0 1 2.783 2.783.557.557 0 0 1-1.113.009v-.009c0-.92-.75-1.67-1.67-1.67-.92 0-1.67.75-1.67 1.67 0 .92.75 1.67 1.67 1.67.427 0 .818-.162 1.113-.427.296.265.686.427 1.114.427.92 0 1.67-.75 1.67-1.67A3.9 3.9 0 0 0 9.5 2.227Zm.549 3.985a.557.557 0 1 1 .004-.153.56.56 0 0 0-.004.153Z" fill="#fff"/><path d="M17.85 7.31a.56.56 0 0 0-.163-.393l-2.064-2.064V.557A.557.557 0 0 0 15.066 0H3.934a.557.557 0 0 0-.557.557v4.296L1.313 6.917l-.005.006a.56.56 0 0 0-.158.387v10.02c0 .922.75 1.67 1.67 1.67h13.36c.921 0 1.67-.75 1.67-1.67V7.31Zm-2.227-.882.883.883-.883.882V6.428ZM4.49 5.084v-3.97h10.02v8.193l-3.014 3.013H7.504L4.49 9.307V5.084ZM3.377 6.428v1.765l-.883-.882.883-.883ZM2.264 17.099V8.654l4.222 4.223-4.222 4.222Zm.787.788 4.453-4.453h3.992l4.453 4.453H3.051Zm13.685-.788-4.222-4.222 4.222-4.223V17.1Z" fill="#fff"/></svg>