<svg aria-hidden="true" style="position:absolute;width:0;height:0;overflow:hidden" xmlns="http://www.w3.org/2000/svg"><defs><symbol id="icon-address" viewBox="0 0 32 32"><path fill="#fff" style="fill:var(--color1, #fff)" d="M12.781 28.664v3.24l-.783-.633a53.057 53.057 0 0 1-5.873-5.732l-.052-.06C2.043 20.852 0 16.699 0 13.134v-.354C0 5.735 5.733 0 12.781 0c7.047 0 12.781 5.733 12.781 12.781v.354c0 .298-.017.603-.045.909l-2.499-2.279c-.54-5.224-4.914-9.265-10.234-9.273h-.001C7.102 2.497 2.498 7.1 2.492 12.78v.354c0 6.023 7.759 13.314 10.287 15.528zm7.669-1.792h3.741v-3.741h-3.739v3.741zM12.783 7.481a5.306 5.306 0 0 1 5.299 5.3 5.306 5.306 0 0 1-5.298 5.299 5.305 5.305 0 0 1-5.302-5.296 5.305 5.305 0 0 1 5.302-5.302zm0 2.495a2.808 2.808 0 0 0-2.806 2.806 2.81 2.81 0 0 0 2.806 2.806 2.81 2.81 0 0 0 2.806-2.806 2.81 2.81 0 0 0-2.806-2.806zm17.538 15.201-.701-.64v4.003a3.386 3.386 0 0 1-3.382 3.382h-7.897a3.385 3.385 0 0 1-3.38-3.382v-4.002l-.702.64-1.681-1.843 9.711-8.859L32 23.333l-1.681 1.843zm-3.195-2.913-4.834-4.413-4.837 4.413v6.277a.89.89 0 0 0 .888.888h7.896a.89.89 0 0 0 .888-.888v-6.279z"/></symbol><symbol id="icon-arrow" viewBox="0 0 87 32"><path fill="#fff" style="fill:var(--color1, #fff)" d="M.194.388c12.252 15.673 46.421 32.54 72.103 22.777-.939 1.966-1.426 3.417-1.943 4.062-.453.645 11.839-8.95 16.55-12.827 0 0-21.695-.389-22.049-.291-.387.13 2.571 1.345 5.272 2.496C49.698 24.002 21.299 15.617.194.388z"/><path style="fill:var(--color2, #000)" opacity=".2" d="M.194.388c12.252 15.673 46.421 32.54 72.103 22.777-.939 1.966-1.426 3.417-1.943 4.062-.453.645 11.839-8.95 16.55-12.827 0 0-21.695-.389-22.049-.291-.387.13 2.571 1.345 5.272 2.496C49.698 24.002 21.299 15.617.194.388z"/><path fill="none" stroke="#000" style="stroke:var(--color2, #000)" stroke-width=".533" d="M1.671 1.759c6.345 7.303 17.25 14.687 29.631 19.306 13.25 4.942 28.141 6.7 40.9 1.851l.622-.237-.287.601c-.35.733-.636 1.393-.887 1.97l-.239.549a21.59 21.59 0 0 1-.281.616 261.28 261.28 0 0 0 6.128-4.67l-.73.553c3.334-2.592 7.218-5.666 9.644-7.644l-.207-.004c1.14.003-2.348-.057-5.838-.113l-4.121-.052c-2.734-.043-5.478-.082-7.561-.105-.788-.01-1.77-.017-2.752-.02h-.045c.22.108.488.233.793.371.779.351 1.78.775 2.809 1.212l1.603.682-.637.231c-10.28 3.723-22.544 3.468-34.869.385C23.649 14.315 11.88 8.835 1.669 1.76z"/></symbol><symbol id="icon-confidential-1" viewBox="0 0 32 32"><path fill="#3a4661" style="fill:var(--color3, #3a4661)" d="M12 4.5h14v1H12v-1zm0 2h14v1H12V6.499zm0 2h14v.999H12V8.5zm0 2h14v.999H12V10.5z"/><path fill="#3a4661" style="fill:var(--color3, #3a4661)" d="M29.5 16.5H28V2.999a.5.5 0 0 0-.5-.5H26V1a.5.5 0 0 0-.5-.5H4.501a.5.5 0 0 0-.5.5v15.5H2.5c-1.102 0-2 .897-2 2v13h1V18.499c0-.551.449-1 1-1h27c.551 0 1.001.449 1.001 1v13h.999V18.5c0-1.103-.897-2-2-2zm-2.5 0H7v-9h3.5A.5.5 0 0 0 11 7V3.5h16v13.001zM7.707 6.5 10 4.207V6.5H7.707zM5 1.5h20v1H10.499a.497.497 0 0 0-.352.146l-4 4A.495.495 0 0 0 6 6.999V16.5H5v-15z"/><path fill="#3a4661" style="fill:var(--color3, #3a4661)" d="M25 14.5h1v1h-1v-1zm-2 0h1v1h-1v-1zm-2 0h1v1h-1v-1zm-2 0h1v1h-1v-1zm0-2h7v.999h-7V12.5zm-16.5 7h14v1h-14v-1zm0 2h6.999v1H2.501v-1zm20-3c-3.584 0-6.5 2.916-6.5 6.5s2.916 6.5 6.5 6.5S29 28.584 29 25s-2.916-6.5-6.5-6.5zm0 12A5.506 5.506 0 0 1 17 25a5.506 5.506 0 0 1 5.5-5.5A5.507 5.507 0 0 1 28 25a5.506 5.506 0 0 1-5.5 5.5z"/><path fill="#3a4661" style="fill:var(--color3, #3a4661)" d="M25.5 24.5H25V23a2.503 2.503 0 0 0-2.5-2.5A2.503 2.503 0 0 0 20 23v1.501h-.5a.5.5 0 0 0-.5.5v3a.5.5 0 0 0 .5.5h6a.5.5 0 0 0 .5-.5v-3a.5.5 0 0 0-.5-.5zM21 23c0-.827.673-1.5 1.5-1.5s1.5.674 1.5 1.5v1.5h-3V23zm4 4.5h-5v-2h5v2z"/></symbol><symbol id="icon-confidential-2" viewBox="0 0 32 32"><path fill="none" stroke="#344154" style="stroke:var(--color4, #344154)" stroke-linecap="round" stroke-miterlimit="10" stroke-width=".865" d="m20.039 19.975-.488-2.447a2.262 2.262 0 0 0-.817-1.376l-.005-.003a1.69 1.69 0 0 0-.784-.414l-.011-.002-2.053-.598c-.052-.026-.078-.026-.129-.052a.513.513 0 0 1-.204-.31l-.001-.003-.103-.833c.591-.442 1.002-1.145 1.206-1.926.36-.026.642-.442.642-.963 0-.495-.231-.885-.565-.963m-5.801-.053c-.308.104-.539.469-.539.963 0 .521.282.938.642.963.205.781.642 1.483 1.207 1.926l-.103.833c-.026.13-.077.26-.205.312-.052.026-.078.052-.129.052l-2.053.599c-.257.052-.539.208-.796.416-.411.365-.719.833-.822 1.379l-.488 2.448m9.112-9.891s.181-3.461-2.9-3.461-2.927 3.461-2.927 3.461"/><path fill="none" stroke="#344154" style="stroke:var(--color4, #344154)" stroke-linecap="round" stroke-miterlimit="10" stroke-width=".865" d="M11.157 8.549c.129-.26.36-.443.617-.547.411-.156.873-.026 1.283.156.59.26 1.078.599 1.745.651.616.078 1.181 0 1.745-.286m-4.595 6.533 1.9 1.979m1.9-1.979-1.899 1.979m0-.001v1.327"/><path fill="none" stroke="#344154" style="stroke:var(--color4, #344154)" stroke-linecap="round" stroke-miterlimit="10" stroke-width=".865" d="M16.463 25.463c6.216-1.458 10.089-7.749 8.651-14.052S17.47 1.182 11.255 2.64C5.038 4.098 1.166 10.389 2.603 16.692s7.643 10.23 13.859 8.772z"/><path fill="none" stroke="#344154" style="stroke:var(--color4, #344154)" stroke-linecap="round" stroke-miterlimit="10" stroke-width=".865" d="M14.16 27.758c7.291 0 13.22-6.013 13.22-13.405"/><path fill="none" stroke="#344154" style="stroke:var(--color4, #344154)" stroke-linecap="round" stroke-miterlimit="10" stroke-width=".865" d="m24.531 22.656 6.161 6.247a1.568 1.568 0 0 1 0 2.187h0a1.516 1.516 0 0 1-2.156 0h0l-6.161-6.247"/></symbol><symbol id="icon-confidential-3" viewBox="0 0 39 32"><path fill="none" stroke="#344154" style="stroke:var(--color4, #344154)" stroke-linejoin="round" stroke-miterlimit="10" stroke-width="1.032" d="M12.459 17.172c0-.379.547-6.304.547-6.304l3.943-2.597"/><path fill="none" stroke="#344154" style="stroke:var(--color4, #344154)" stroke-linejoin="round" stroke-linecap="round" stroke-miterlimit="10" stroke-width="1.032" d="m19.08 14.02-.95 3.151"/><path fill="none" stroke="#344154" style="stroke:var(--color4, #344154)" stroke-linejoin="round" stroke-miterlimit="10" stroke-width="1.032" d="M26.794 17.172c0-.379-.547-6.304-.547-6.304l-3.943-2.597"/><path fill="none" stroke="#344154" style="stroke:var(--color4, #344154)" stroke-linejoin="round" stroke-linecap="round" stroke-miterlimit="10" stroke-width="1.032" d="m22.333 8.27-4.232 3.94.98 1.81h1.094l.979-1.81-4.232-3.94m3.252 5.75.95 3.151m1.209-2.334h2.101m-4.807-7.501c1.399 0 2.533-1.411 2.533-3.151 0-1.741-1.134-3.153-2.533-3.153s-2.533 1.411-2.533 3.153c0 1.74 1.134 3.151 2.533 3.151z"/><path fill="none" stroke="#344154" style="stroke:var(--color4, #344154)" stroke-linejoin="round" stroke-miterlimit="10" stroke-width="1.032" d="m26.19 10.955 2.648-1.139"/><path fill="none" stroke="#344154" style="stroke:var(--color4, #344154)" stroke-linejoin="round" stroke-linecap="round" stroke-miterlimit="10" stroke-width="1.032" d="m30.652 11.101-1.814-1.284"/><path fill="none" stroke="#344154" style="stroke:var(--color4, #344154)" stroke-linejoin="round" stroke-miterlimit="10" stroke-width="1.032" d="M35.718 17.201c0-.262-.634-6.245-.634-6.245l-2.648-1.139"/><path fill="none" stroke="#344154" style="stroke:var(--color4, #344154)" stroke-linejoin="round" stroke-linecap="round" stroke-miterlimit="10" stroke-width="1.032" d="m32.465 9.817-1.813 1.285v3.735m0-6.333c1.065 0 1.928-1.071 1.928-2.393s-.863-2.395-1.928-2.395-1.929 1.074-1.929 2.395.864 2.393 1.929 2.393z"/><path fill="none" stroke="#344154" style="stroke:var(--color4, #344154)" stroke-linejoin="round" stroke-miterlimit="10" stroke-width="1.032" d="m13.064 10.955-2.649-1.139"/><path fill="none" stroke="#344154" style="stroke:var(--color4, #344154)" stroke-linejoin="round" stroke-linecap="round" stroke-miterlimit="10" stroke-width="1.032" d="m8.603 11.101 1.813-1.284"/><path fill="none" stroke="#344154" style="stroke:var(--color4, #344154)" stroke-linejoin="round" stroke-miterlimit="10" stroke-width="1.032" d="M3.537 17.201c0-.262.633-6.245.633-6.245l2.649-1.139"/><path fill="none" stroke="#344154" style="stroke:var(--color4, #344154)" stroke-linejoin="round" stroke-linecap="round" stroke-miterlimit="10" stroke-width="1.032" d="m6.789 9.817 1.814 1.284v3.737m0-6.334c1.065 0 1.928-1.071 1.928-2.393s-.863-2.395-1.928-2.395S6.674 4.79 6.674 6.111s.864 2.393 1.929 2.393z"/><path fill="none" stroke="#344154" style="stroke:var(--color4, #344154)" stroke-miterlimit="10" stroke-width="1.032" d="M35.084 17.172H4.169c-1.727 0-3.137 1.431-3.137 3.181v10.215h6.419v-1.49c0-1.985 1.583-3.59 3.541-3.59h17.242c1.957 0 3.541 1.605 3.541 3.59v1.489h6.42V20.352c.029-1.751-1.382-3.181-3.109-3.181z"/><path fill="none" stroke="#344154" style="stroke:var(--color4, #344154)" stroke-linecap="round" stroke-miterlimit="10" stroke-width="1.032" d="M10.818 22.921h17.618"/></symbol><symbol id="icon-drop-down" viewBox="0 0 48 32"><path fill="none" stroke="#fff" style="stroke:var(--color1, #fff)" stroke-linejoin="round" stroke-linecap="round" stroke-width="5.333" d="M5.333 5.333 24 26.666 42.667 5.333"/></symbol><symbol id="icon-logo" viewBox="0 0 96 32"><path fill="#fff" style="fill:var(--color1, #fff)" d="M38.612 26.054h7.141v-1.255h-5.734v-9.644h-1.407v10.9zm13.076 0h4.495v-1.255h-1.555v-8.388h1.554v-1.255h-4.495v1.255h1.534v8.39h-1.534v1.255zm11.039-9.645h1.134v8.39h-1.134v1.255h3.654c3.928 0 4.516-2.176 4.516-5.586 0-4.038-1.407-5.314-4.516-5.314h-3.654v1.255zm2.542 0h1.449c1.743 0 2.71.857 2.71 4.205 0 3.138-.819 4.185-2.667 4.185H65.27v-8.39zm10.85 9.645h6.826v-1.255h-5.418v-3.87H82v-1.255h-4.473v-3.263h5.418v-1.255h-6.826v10.9zm13.832-5.921v-3.724h2.268c1.26 0 1.848.732 1.848 1.715 0 1.234-.903 2.009-2.268 2.009h-1.848zm-1.407 5.921h1.407v-4.665h2.037l2.793 4.937 1.218-.732-2.689-4.414c1.324-.398 2.226-1.716 2.226-3.055 0-2.113-1.449-2.97-3.276-2.97h-3.718v10.9z"/><path fill="#ffe66d" style="fill:var(--color5, #ffe66d)" d="M5.204 5.522 5.646.225 31.892 26.37h-5.76L5.203 5.521z"/><path fill="#ffe66d" style="fill:var(--color5, #ffe66d)" d="M22.452 0H5.143v5.409l4.073 4.057V4.057h13.237c2.686 0 4.864 2.17 4.864 4.846s-2.178 4.846-4.865 4.846h-8.937l4.073 4.057h4.864c4.936 0 8.938-3.986 8.938-8.903S27.388 0 22.452 0z"/><path fill="#fff" style="fill:var(--color1, #fff)" d="M0 10.127V4.39L27.717 32h-5.759L0 10.127z"/><path fill="#ffe66d" style="fill:var(--color5, #ffe66d)" d="m5.142 18.98 7.42 7.391-7.419-.001-.001-7.391z"/></symbol><symbol id="icon-mail" viewBox="0 0 32 32"><path fill="#fff" style="fill:var(--color1, #fff)" d="M16 3.751a6.569 6.569 0 0 0-6.562 6.561 6.54 6.54 0 0 0 3.03 5.529c1.937 1.241 4.317 1.373 6.526.357a.938.938 0 1 0-.788-1.702l.005-.002c-1.617.744-3.341.66-4.733-.231a4.68 4.68 0 0 1-2.166-3.945v-.007a4.692 4.692 0 0 1 4.687-4.687 4.693 4.693 0 0 1 4.687 4.687.94.94 0 0 1-1.875.018v-.017c0-1.549-1.263-2.813-2.813-2.813s-2.813 1.263-2.813 2.813a2.818 2.818 0 0 0 2.813 2.813c.719 0 1.378-.273 1.875-.719a2.805 2.805 0 0 0 1.876.719 2.818 2.818 0 0 0 2.813-2.813 6.569 6.569 0 0 0-6.563-6.562zm.925 6.711a.938.938 0 1 1 .006-.262v.004a.91.91 0 0 0-.007.262v-.004z"/><path fill="#fff" style="fill:var(--color1, #fff)" d="M30.063 12.312a.942.942 0 0 0-.275-.662l-3.476-3.476V.939a.938.938 0 0 0-.938-.938H6.625a.938.938 0 0 0-.938.938v7.235L2.202 11.66a.935.935 0 0 0-.266.652v16.876a2.816 2.816 0 0 0 2.813 2.813H27.25a2.817 2.817 0 0 0 2.813-2.813V12.312zm-3.751-1.486 1.487 1.487-1.487 1.485v-2.973zM7.562 8.563V1.877h16.876v13.799l-5.076 5.075h-6.723l-5.076-5.075V8.564zm-1.874 2.263v2.973l-1.487-1.485 1.487-1.487zM3.813 28.798V14.575l7.111 7.112-7.111 7.111zm1.326 1.327 7.5-7.5h6.723l7.5 7.5H5.139zm23.048-1.327-7.111-7.111 7.111-7.112V28.8z"/></symbol><symbol id="icon-mobile" viewBox="0 0 32 32"><path fill="#fff" style="fill:var(--color1, #fff)" d="M22.733 0H9.269a2.33 2.33 0 0 0-2.331 2.331v27.34A2.327 2.327 0 0 0 9.267 32h13.464a2.33 2.33 0 0 0 2.328-2.329V2.331A2.327 2.327 0 0 0 22.733 0zM12.679 1.415h6.648c.168 0 .303.253.303.563s-.135.561-.303.561h-6.648c-.168 0-.303-.253-.303-.561 0-.312.135-.561.303-.561zm3.323 28.284a1.49 1.49 0 0 1-.003-2.974h.003a1.487 1.487 0 0 1 0 2.974zm7.316-5.094H8.684V3.933h14.632v20.674z"/></symbol><symbol id="icon-Rectangle-28" viewBox="0 0 320 32"><path fill="#6ca6c1" style="fill:var(--color6, #6ca6c1)" d="M0 0h320v32H0z"/></symbol><symbol id="icon-Rectangle-nav" viewBox="0 0 320 32"><path fill="#6ca6c1" style="fill:var(--color6, #6ca6c1)" d="M0 0h320v32H0z"/></symbol><symbol id="icon-Rectangle-vertical" viewBox="0 0 2 32"><path fill="#6ca6c1" style="fill:var(--color6, #6ca6c1)" d="M0 0h1.506v32H0z"/></symbol></defs></svg>